<svg width="31" height="32" viewBox="0 0 31 32" fill="none" xmlns="http://www.w3.org/2000/svg">
<path fill-rule="evenodd" clip-rule="evenodd" d="M15.4584 14.5955C15.4584 13.2198 17.6019 9.82785 23.0416 8.06448C21.986 12.0963 18.4022 15.6164 16.4181 15.6164C15.8104 15.6172 15.4584 15.2651 15.4584 14.5955ZM3.39917 24.8961C3.39917 22.7839 4.07129 19.7441 5.31958 16.5771C6.18347 19.5209 6.85486 22.5607 6.85486 24.8961C6.85486 27.9996 6.40759 29.0875 5.12708 29.0875C3.84644 29.0875 3.39917 27.9996 3.39917 24.8961ZM0.487549 24.8961C0.487549 30.1118 2.69568 32 5.12708 32C6.31091 32 9.76733 31.4561 9.76733 24.8961C9.76733 21.3413 8.48669 16.6407 7.14331 12.6411C9.99048 7.4577 14.2786 2.91415 19.4943 2.91415C21.8917 2.91415 22.9176 3.80945 23.2375 4.96188C15.6542 6.97739 12.5508 11.8731 12.5508 14.6252C12.5508 17.0565 14.3109 18.4967 16.5189 18.4967C19.9431 18.4967 25.3506 13.5364 26.1187 7.32956C27.5695 7.1171 29.0338 7.01013 30.5001 7.00964V4.09631C29.0115 4.08325 27.524 4.19025 26.0525 4.41626C25.5408 2.1759 23.7493 0 19.4934 0C13.8619 0 9.15967 4.00043 5.86279 9.05573C4.87073 6.43176 4.07043 4.64029 4.07043 4.64029L1.38293 5.75964C1.38293 5.75964 2.6626 8.63989 3.97461 12.3832C1.73169 16.8325 0.483398 21.5687 0.483398 24.8961H0.487549Z" fill="#E3C4B2"/>
</svg>
