<svg width="16" height="16" viewBox="0 0 16 16" fill="none" xmlns="http://www.w3.org/2000/svg">
<path fill-rule="evenodd" clip-rule="evenodd" d="M16 15.0457L12.2138 11.2595C13.1924 10.0696 13.7809 8.54769 13.7809 6.89012C13.7809 3.09107 10.6898 0 6.89012 0C3.09107 0 0 3.09107 0 6.89012C0 10.6898 3.09107 13.7809 6.89012 13.7809C8.54769 13.7809 10.0696 13.1924 11.2595 12.2138L15.0457 16L16 15.0457ZM1.34981 6.89012C1.34981 3.83549 3.83549 1.34981 6.89012 1.34981C9.94542 1.34981 12.4311 3.83549 12.4311 6.89012C12.4311 9.94542 9.94542 12.4311 6.89012 12.4311C3.83549 12.4311 1.34981 9.94542 1.34981 6.89012Z" fill="#FFF5E2"/>
</svg>
